<svg width="60" height="60" viewBox="0 0 40 40" fill="none" xmlns="http://www.w3.org/2000/svg">
<path fill-rule="evenodd" clip-rule="evenodd" d="M18.3333 15C18.3333 14.08 19.08 13.3333 20 13.3333C20.92 13.3333 21.6667 14.08 21.6667 15V21.6666C21.6667 22.5866 20.92 23.3333 20 23.3333C19.08 23.3333 18.3333 22.5866 18.3333 21.6666V15ZM18.3333 26.6666C18.3333 25.7466 19.08 25 20 25C20.92 25 21.6667 25.7466 21.6667 26.6666C21.6667 27.5866 20.92 28.3333 20 28.3333C19.08 28.3333 18.3333 27.5866 18.3333 26.6666ZM34.7745 30.5883C34.3928 31.2633 33.6495 31.6666 32.7862 31.6666H7.21283C6.3495 31.6666 5.60616 31.2633 5.22616 30.5883C5.04616 30.2716 4.8095 29.6266 5.2545 28.8933L18.0395 7.69665C18.8178 6.40665 21.1812 6.40665 21.9595 7.69665L34.7462 28.8933C35.1895 29.6266 34.9545 30.2716 34.7745 30.5883ZM37.6012 27.1716L24.8145 5.97331C23.8162 4.31998 22.0162 3.33331 19.9995 3.33331C17.9828 3.33331 16.1828 4.31998 15.1862 5.97331L2.3995 27.1716C1.45116 28.7433 1.42283 30.6333 2.32283 32.2266C3.28783 33.9383 5.16283 35 7.21283 35H32.7862C34.8378 35 36.7112 33.9383 37.6778 32.2266C38.5778 30.6333 38.5495 28.7433 37.6012 27.1716Z" fill="#F77700"/>
<mask id="mask0_1480_36735" style="mask-type:alpha" maskUnits="userSpaceOnUse" x="1" y="3" width="38" height="32">
<path fill-rule="evenodd" clip-rule="evenodd" d="M18.3333 15C18.3333 14.08 19.08 13.3333 20 13.3333C20.92 13.3333 21.6667 14.08 21.6667 15V21.6666C21.6667 22.5866 20.92 23.3333 20 23.3333C19.08 23.3333 18.3333 22.5866 18.3333 21.6666V15ZM18.3333 26.6666C18.3333 25.7466 19.08 25 20 25C20.92 25 21.6667 25.7466 21.6667 26.6666C21.6667 27.5866 20.92 28.3333 20 28.3333C19.08 28.3333 18.3333 27.5866 18.3333 26.6666ZM34.7745 30.5883C34.3928 31.2633 33.6495 31.6666 32.7862 31.6666H7.21283C6.3495 31.6666 5.60616 31.2633 5.22616 30.5883C5.04616 30.2716 4.8095 29.6266 5.2545 28.8933L18.0395 7.69665C18.8178 6.40665 21.1812 6.40665 21.9595 7.69665L34.7462 28.8933C35.1895 29.6266 34.9545 30.2716 34.7745 30.5883ZM37.6012 27.1716L24.8145 5.97331C23.8162 4.31998 22.0162 3.33331 19.9995 3.33331C17.9828 3.33331 16.1828 4.31998 15.1862 5.97331L2.3995 27.1716C1.45116 28.7433 1.42283 30.6333 2.32283 32.2266C3.28783 33.9383 5.16283 35 7.21283 35H32.7862C34.8378 35 36.7112 33.9383 37.6778 32.2266C38.5778 30.6333 38.5495 28.7433 37.6012 27.1716Z" fill="white"/>
</mask>
<g mask="url(#mask0_1480_36735)">
<rect width="60" height="60" fill="#F77700"/>
</g>
</svg>
